<svg id="svg" version="1.1" xmlns="http://www.w3.org/2000/svg" xmlns:xlink="http://www.w3.org/1999/xlink" width="400" height="400" viewBox="0, 0, 400,400"><g id="svgg"><path id="path0" d="M194.000 68.245 C 193.670 68.328,191.420 68.578,189.000 68.800 C 180.894 69.544,178.339 69.957,171.600 71.616 C 170.830 71.806,169.377 72.138,168.372 72.355 C 167.366 72.572,165.836 73.010,164.972 73.328 C 162.587 74.208,159.178 75.200,158.541 75.200 C 157.989 75.200,153.800 76.495,152.200 77.160 C 151.760 77.343,150.950 77.672,150.400 77.891 C 149.850 78.110,148.410 78.790,147.200 79.403 C 145.990 80.015,142.480 81.771,139.400 83.304 C 132.323 86.826,127.830 89.597,124.625 92.415 C 123.240 93.634,121.317 94.983,120.353 95.414 C 118.384 96.295,117.471 96.953,116.243 98.379 C 114.298 100.636,110.502 104.087,109.200 104.781 C 107.555 105.657,105.836 107.385,104.881 109.122 C 104.220 110.324,100.938 113.923,98.568 116.046 C 96.915 117.525,96.308 118.354,95.414 120.353 C 94.983 121.317,93.634 123.240,92.415 124.625 C 89.597 127.830,86.826 132.323,83.304 139.400 C 81.771 142.480,80.015 145.990,79.403 147.200 C 78.790 148.410,78.158 149.760,77.998 150.200 C 77.838 150.640,77.509 151.450,77.267 152.000 C 76.569 153.589,75.200 157.920,75.200 158.541 C 75.200 159.178,74.208 162.587,73.328 164.972 C 73.010 165.836,72.572 167.366,72.355 168.372 C 72.138 169.377,71.806 170.830,71.617 171.600 C 67.180 189.644,66.977 209.232,71.045 226.800 C 71.376 228.230,71.839 230.300,72.074 231.400 C 72.308 232.500,72.812 234.300,73.194 235.400 C 74.194 238.284,74.632 239.820,75.417 243.200 C 75.801 244.850,76.466 247.010,76.897 248.000 C 77.327 248.990,77.817 250.160,77.985 250.600 C 78.602 252.220,87.250 269.323,87.591 269.600 C 87.727 269.710,88.339 270.666,88.951 271.725 C 89.563 272.784,90.709 274.314,91.499 275.125 C 93.062 276.732,95.333 280.103,95.753 281.441 C 95.898 281.903,97.048 283.260,98.308 284.455 C 100.941 286.953,103.951 290.372,105.295 292.392 C 105.804 293.157,106.963 294.282,107.870 294.891 C 108.778 295.501,111.355 297.798,113.597 299.997 C 115.840 302.196,118.423 304.337,119.337 304.755 C 121.042 305.533,122.144 306.329,124.978 308.833 C 127.667 311.208,130.098 312.690,137.517 316.479 C 141.413 318.468,145.078 320.434,145.662 320.848 C 146.246 321.262,146.887 321.600,147.087 321.600 C 147.286 321.600,148.159 321.939,149.025 322.354 C 150.778 323.194,153.128 323.984,157.600 325.239 C 159.250 325.702,160.960 326.220,161.400 326.389 C 163.128 327.053,167.538 328.353,170.200 328.981 C 171.740 329.345,173.630 329.799,174.400 329.991 C 176.368 330.482,179.910 331.147,181.800 331.380 C 189.730 332.358,193.303 332.592,200.400 332.596 C 209.256 332.600,218.594 331.751,224.400 330.413 C 225.390 330.185,227.100 329.826,228.200 329.616 C 230.529 329.171,232.536 328.625,235.600 327.605 C 240.371 326.017,245.830 324.396,246.400 324.399 C 247.095 324.403,251.467 322.688,253.800 321.496 C 254.680 321.046,257.020 319.856,259.000 318.852 C 260.980 317.847,262.660 316.884,262.733 316.712 C 262.807 316.541,263.077 316.396,263.333 316.391 C 263.590 316.386,264.250 316.030,264.800 315.600 C 265.350 315.170,266.132 314.814,266.539 314.809 C 267.461 314.798,273.652 310.803,275.807 308.828 C 276.691 308.018,277.996 307.012,278.707 306.591 C 279.418 306.171,280.000 305.706,280.000 305.557 C 280.000 305.409,280.678 305.015,281.507 304.684 C 282.352 304.346,284.769 302.374,287.007 300.196 C 289.203 298.060,291.732 295.806,292.626 295.188 C 293.520 294.569,294.711 293.374,295.273 292.532 C 295.834 291.689,297.964 289.290,300.006 287.200 C 306.474 280.580,306.286 278.907,298.675 275.321 C 297.616 274.822,295.996 273.626,295.075 272.662 C 294.154 271.699,291.510 269.540,289.200 267.864 C 280.274 261.389,275.144 257.443,274.788 256.777 C 274.584 256.396,273.858 255.889,273.174 255.651 C 272.113 255.281,271.043 254.587,267.246 251.806 C 266.941 251.583,265.845 250.590,264.811 249.600 C 262.075 246.980,261.312 246.416,258.833 245.179 C 257.605 244.566,255.970 243.406,255.200 242.600 C 254.430 241.795,252.900 240.479,251.800 239.676 C 250.700 238.873,249.562 237.988,249.272 237.708 C 248.981 237.429,247.901 236.721,246.872 236.136 C 245.842 235.550,244.460 234.572,243.800 233.963 C 241.748 232.069,237.083 228.825,236.727 229.045 C 236.541 229.160,236.047 229.917,235.630 230.727 C 234.697 232.538,232.658 234.646,231.024 235.491 C 229.792 236.128,227.774 237.611,225.218 239.759 C 223.454 241.241,217.204 244.167,214.600 244.730 C 205.552 246.687,198.736 246.702,188.000 244.788 C 184.874 244.231,176.531 239.936,175.098 238.146 C 174.712 237.664,173.269 236.557,171.891 235.687 C 168.872 233.780,165.866 230.523,164.614 227.800 C 164.108 226.700,163.304 225.449,162.827 225.020 C 161.613 223.928,157.782 215.676,156.874 212.200 C 155.516 207.000,155.264 197.972,156.338 193.000 C 156.575 191.900,156.880 190.370,157.015 189.600 C 158.202 182.835,167.606 169.246,174.200 164.766 C 178.368 161.934,187.322 157.432,189.600 157.022 C 190.370 156.883,191.900 156.575,193.000 156.338 C 198.980 155.046,209.974 155.701,214.600 157.624 C 220.761 160.185,224.179 161.892,225.023 162.831 C 225.451 163.305,226.700 164.098,227.800 164.593 C 230.250 165.695,234.802 169.993,235.961 172.300 C 236.432 173.235,236.961 174.000,237.139 174.000 C 237.650 174.000,243.233 169.648,245.041 167.840 C 245.944 166.938,248.007 165.479,249.626 164.600 C 251.245 163.720,253.387 162.216,254.385 161.258 C 257.701 158.076,262.218 154.800,263.288 154.800 C 263.506 154.800,264.023 154.371,264.435 153.846 C 264.848 153.321,267.304 151.296,269.893 149.346 C 272.482 147.396,274.661 145.661,274.736 145.492 C 274.811 145.322,275.441 144.890,276.136 144.531 C 277.913 143.615,283.507 139.317,285.311 137.482 C 286.142 136.637,287.614 135.595,288.583 135.166 C 290.433 134.348,294.250 131.532,295.098 130.360 C 295.371 129.981,296.541 128.984,297.698 128.144 C 298.854 127.304,300.064 126.361,300.387 126.050 C 300.710 125.738,301.651 125.180,302.478 124.810 C 303.305 124.439,304.447 123.634,305.015 123.021 L 306.049 121.906 304.924 119.681 C 304.241 118.328,302.650 116.349,300.864 114.628 C 299.249 113.073,296.925 110.470,295.700 108.845 C 294.474 107.219,292.945 105.599,292.301 105.245 C 290.864 104.453,287.315 101.324,284.615 98.469 C 283.413 97.197,281.621 95.863,280.172 95.162 C 278.837 94.515,276.913 93.178,275.896 92.190 C 273.551 89.910,268.993 87.113,261.613 83.424 C 258.416 81.825,254.810 80.016,253.600 79.403 C 252.390 78.791,251.040 78.152,250.600 77.985 C 250.160 77.817,248.990 77.327,248.000 76.897 C 247.010 76.466,244.850 75.801,243.200 75.417 C 239.599 74.581,236.304 73.626,234.200 72.809 C 233.760 72.638,232.500 72.306,231.400 72.072 C 230.300 71.838,227.690 71.253,225.600 70.774 C 217.537 68.924,197.616 67.330,194.000 68.245 " stroke="none" fill="#bf9868" fill-rule="evenodd"></path><path id="path1" d="M3.600 200.000 L 3.600 396.400 200.000 396.400 L 396.400 396.400 396.400 200.000 L 396.400 3.600 200.000 3.600 L 3.600 3.600 3.600 200.000 M215.600 68.324 C 219.992 68.886,224.114 69.573,224.800 69.858 C 225.345 70.085,226.075 70.251,229.800 70.997 C 231.432 71.325,234.027 72.025,235.000 72.400 C 236.110 72.828,239.581 73.790,244.319 74.981 C 245.705 75.329,247.685 75.989,248.719 76.447 C 249.754 76.905,251.050 77.457,251.600 77.673 C 252.150 77.890,253.320 78.439,254.200 78.894 C 260.875 82.343,263.993 83.900,265.200 84.387 C 267.272 85.225,274.733 89.990,275.520 90.979 C 276.325 91.992,279.226 94.013,281.210 94.944 C 281.986 95.308,284.390 97.324,286.553 99.425 C 288.715 101.525,291.231 103.713,292.142 104.287 C 293.881 105.382,295.983 107.517,295.994 108.201 C 295.997 108.422,297.935 110.605,300.300 113.052 C 302.821 115.660,305.083 118.416,305.766 119.714 L 306.933 121.928 305.566 123.397 C 304.815 124.205,303.461 125.219,302.557 125.651 C 301.653 126.082,300.573 126.742,300.156 127.117 C 299.740 127.493,298.762 128.276,297.982 128.857 C 297.203 129.439,295.938 130.519,295.171 131.257 C 292.941 133.404,291.156 134.689,288.800 135.841 C 287.590 136.433,286.067 137.538,285.416 138.297 C 284.765 139.056,283.415 140.237,282.416 140.921 C 281.417 141.606,280.150 142.591,279.600 143.110 C 279.050 143.629,277.880 144.428,277.000 144.884 C 276.120 145.341,275.109 146.049,274.753 146.457 C 274.397 146.866,273.917 147.200,273.686 147.200 C 273.456 147.200,273.207 147.346,273.133 147.524 C 273.060 147.703,271.740 148.785,270.200 149.929 C 268.660 151.074,266.676 152.720,265.792 153.587 C 264.907 154.454,263.557 155.428,262.792 155.751 C 261.212 156.417,257.668 159.101,254.463 162.056 C 253.269 163.157,251.212 164.582,249.892 165.221 C 248.571 165.861,246.776 167.113,245.902 168.005 C 245.029 168.896,243.658 170.113,242.857 170.710 C 242.056 171.307,241.310 171.896,241.200 172.018 C 240.344 172.972,237.175 174.832,236.800 174.600 C 236.543 174.441,235.741 173.387,235.017 172.256 C 233.122 169.297,230.316 166.648,227.745 165.390 C 226.516 164.790,224.941 163.797,224.243 163.185 C 223.216 162.282,218.096 159.600,217.401 159.600 C 217.302 159.600,216.272 159.165,215.111 158.633 C 212.619 157.491,211.543 157.272,203.092 156.184 C 200.794 155.888,194.985 156.439,191.800 157.256 C 190.920 157.481,189.480 157.849,188.600 158.072 C 187.720 158.295,186.640 158.670,186.200 158.905 C 184.799 159.654,181.844 161.073,180.500 161.644 C 179.785 161.947,179.200 162.331,179.200 162.498 C 179.200 162.664,178.999 162.800,178.754 162.800 C 178.508 162.800,177.449 163.430,176.400 164.200 C 175.351 164.970,174.283 165.600,174.027 165.600 C 173.419 165.600,165.600 173.419,165.600 174.027 C 165.600 174.283,164.970 175.351,164.200 176.400 C 163.430 177.449,162.800 178.508,162.800 178.754 C 162.800 178.999,162.664 179.200,162.498 179.200 C 162.331 179.200,161.947 179.785,161.644 180.500 C 161.073 181.844,159.654 184.799,158.905 186.200 C 158.670 186.640,158.295 187.720,158.072 188.600 C 157.849 189.480,157.481 190.920,157.256 191.800 C 156.469 194.870,155.897 200.743,156.159 203.063 C 156.304 204.348,156.527 206.480,156.655 207.800 C 156.783 209.120,157.047 210.371,157.243 210.580 C 157.440 210.789,157.600 211.430,157.600 212.005 C 157.600 212.580,158.050 213.983,158.600 215.123 C 159.150 216.263,159.600 217.298,159.600 217.423 C 159.600 218.090,162.296 223.177,163.221 224.256 C 163.813 224.946,164.776 226.488,165.360 227.682 C 166.673 230.366,169.150 233.031,172.061 234.894 C 173.280 235.674,174.990 237.007,175.861 237.856 C 177.975 239.918,185.958 243.865,188.600 244.154 C 189.700 244.275,192.400 244.654,194.600 244.997 C 201.800 246.120,215.834 244.770,218.180 242.730 C 218.389 242.549,218.884 242.400,219.280 242.400 C 219.676 242.400,220.000 242.220,220.000 242.000 C 220.000 241.780,220.315 241.594,220.700 241.587 C 221.085 241.579,222.120 241.045,223.000 240.398 C 223.880 239.752,225.050 238.904,225.600 238.515 C 226.150 238.125,226.960 237.472,227.400 237.063 C 227.840 236.654,229.140 235.783,230.288 235.128 C 232.383 233.933,233.693 232.604,235.342 230.003 C 236.665 227.917,237.244 228.037,241.446 231.268 C 243.544 232.880,245.837 234.560,246.542 235.000 C 249.198 236.658,255.597 241.646,255.976 242.355 C 256.193 242.760,257.322 243.548,258.485 244.105 C 259.648 244.663,260.962 245.464,261.405 245.886 C 261.847 246.308,262.507 246.822,262.871 247.027 C 263.236 247.232,264.404 248.217,265.467 249.215 C 266.530 250.214,268.030 251.468,268.800 252.002 C 269.570 252.536,270.443 253.210,270.740 253.498 C 271.037 253.787,271.937 254.296,272.740 254.630 C 273.543 254.964,275.010 256.005,276.000 256.944 C 276.990 257.883,278.520 259.170,279.400 259.804 C 280.280 260.439,281.090 261.066,281.200 261.198 C 281.310 261.330,282.030 261.875,282.800 262.408 C 283.570 262.942,284.547 263.696,284.971 264.085 C 285.394 264.473,286.069 264.895,286.471 265.022 C 286.872 265.150,287.200 265.422,287.200 265.627 C 287.200 265.832,287.470 266.000,287.800 266.000 C 288.130 266.000,288.400 266.141,288.400 266.314 C 288.400 266.486,288.933 266.943,289.585 267.328 C 290.237 267.713,291.002 268.254,291.285 268.530 C 291.568 268.807,292.214 269.319,292.721 269.669 C 293.227 270.018,294.580 271.201,295.728 272.296 C 296.876 273.391,298.261 274.427,298.807 274.598 C 300.110 275.007,303.115 277.049,304.500 278.467 C 306.570 280.586,306.037 282.042,301.543 286.541 C 299.818 288.269,297.585 290.789,296.581 292.141 C 295.577 293.494,294.232 294.974,293.591 295.430 C 291.558 296.879,287.875 300.122,285.600 302.467 C 284.390 303.715,282.545 305.129,281.500 305.612 C 280.455 306.094,279.600 306.648,279.600 306.844 C 279.600 307.040,279.422 307.200,279.205 307.200 C 278.779 307.200,278.283 307.579,274.885 310.500 C 273.670 311.545,272.434 312.400,272.138 312.400 C 271.842 312.400,271.600 312.580,271.600 312.800 C 271.600 313.020,271.442 313.200,271.248 313.200 C 271.055 313.200,269.851 313.830,268.572 314.600 C 267.293 315.370,265.921 316.000,265.524 316.000 C 265.126 316.000,264.800 316.136,264.800 316.302 C 264.800 316.469,264.215 316.859,263.500 317.170 C 262.785 317.481,262.110 317.855,262.000 318.002 C 261.890 318.148,260.450 318.937,258.800 319.756 C 257.150 320.575,255.170 321.578,254.400 321.985 C 251.635 323.445,249.264 324.364,246.555 325.024 C 245.040 325.393,243.487 325.854,243.105 326.048 C 242.723 326.241,242.059 326.400,241.629 326.400 C 241.199 326.400,240.736 326.580,240.600 326.800 C 240.464 327.020,239.859 327.200,239.256 327.200 C 238.653 327.200,237.989 327.351,237.780 327.537 C 237.050 328.183,231.642 329.681,226.600 330.634 C 225.940 330.758,225.040 331.019,224.600 331.212 C 224.160 331.406,222.810 331.654,221.600 331.763 C 220.390 331.872,217.870 332.185,216.000 332.459 C 211.555 333.111,188.984 333.131,184.600 332.488 C 178.425 331.582,176.593 331.285,175.800 331.060 C 175.360 330.936,173.380 330.461,171.400 330.004 C 166.844 328.953,163.509 327.971,163.020 327.537 C 162.811 327.352,162.166 327.200,161.587 327.200 C 161.007 327.200,160.410 327.077,160.259 326.926 C 159.872 326.538,157.128 325.613,156.346 325.606 C 155.461 325.598,149.496 323.603,149.020 323.157 C 148.811 322.960,148.316 322.800,147.920 322.800 C 147.524 322.800,147.200 322.620,147.200 322.400 C 147.200 322.180,146.876 322.000,146.480 322.000 C 146.084 322.000,145.589 321.836,145.380 321.635 C 144.797 321.074,141.047 319.030,136.400 316.739 C 134.090 315.600,131.448 314.158,130.528 313.534 C 129.608 312.910,128.663 312.400,128.428 312.400 C 128.193 312.400,128.000 312.220,128.000 312.000 C 128.000 311.780,127.730 311.600,127.400 311.600 C 127.070 311.600,126.800 311.420,126.800 311.200 C 126.800 310.980,126.546 310.800,126.236 310.800 C 125.925 310.800,125.234 310.280,124.699 309.645 C 123.549 308.278,120.389 306.002,118.344 305.069 C 117.543 304.703,116.463 303.923,115.944 303.334 C 114.255 301.420,108.608 296.022,108.284 296.011 C 107.511 295.985,105.461 294.063,104.443 292.409 C 103.830 291.414,101.603 288.828,99.493 286.663 C 97.383 284.498,95.347 282.068,94.969 281.263 C 94.018 279.236,91.995 276.308,91.101 275.662 C 89.928 274.815,86.374 269.053,83.783 263.800 C 82.482 261.160,80.648 257.624,79.708 255.942 C 78.769 254.261,78.000 252.596,78.000 252.242 C 78.000 251.889,77.820 251.600,77.600 251.600 C 77.380 251.600,77.200 251.274,77.200 250.875 C 77.200 250.476,76.847 249.421,76.417 248.529 C 75.986 247.637,75.344 245.758,74.990 244.354 C 73.781 239.551,72.828 236.109,72.400 235.000 C 72.020 234.015,71.319 231.409,71.001 229.800 C 70.871 229.140,70.589 227.880,70.374 227.000 C 66.704 211.934,66.726 188.723,70.425 173.600 C 70.667 172.610,70.960 171.124,71.075 170.297 C 71.190 169.471,71.445 168.695,71.642 168.574 C 71.839 168.452,72.000 167.821,72.000 167.171 C 72.000 166.521,72.159 165.677,72.353 165.295 C 73.207 163.616,73.597 162.413,74.198 159.600 C 74.969 155.988,75.455 154.378,76.494 152.000 C 76.926 151.010,77.424 149.840,77.600 149.400 C 78.832 146.323,80.762 142.706,81.300 142.467 C 81.465 142.393,81.600 142.104,81.600 141.823 C 81.600 141.317,83.383 137.495,84.876 134.800 C 85.302 134.030,85.751 133.085,85.872 132.700 C 85.994 132.315,86.252 132.000,86.447 132.000 C 86.641 132.000,86.800 131.818,86.800 131.595 C 86.800 130.935,90.485 125.565,92.018 123.990 C 92.798 123.190,93.959 121.502,94.597 120.241 C 95.327 118.799,97.132 116.553,99.466 114.185 C 101.505 112.115,103.675 109.652,104.287 108.711 C 105.686 106.560,106.560 105.686,108.711 104.287 C 109.652 103.675,112.115 101.505,114.185 99.466 C 116.553 97.132,118.799 95.327,120.241 94.597 C 121.502 93.959,123.190 92.798,123.990 92.018 C 125.565 90.485,130.935 86.800,131.595 86.800 C 131.818 86.800,132.000 86.641,132.000 86.447 C 132.000 86.252,132.315 85.994,132.700 85.872 C 133.085 85.751,134.030 85.302,134.800 84.876 C 137.495 83.383,141.317 81.600,141.823 81.600 C 142.104 81.600,142.393 81.465,142.467 81.300 C 142.706 80.762,146.323 78.832,149.400 77.600 C 149.840 77.424,151.010 76.926,152.000 76.494 C 154.378 75.455,155.988 74.969,159.600 74.198 C 162.413 73.597,163.616 73.207,165.295 72.353 C 165.677 72.159,166.521 72.000,167.171 72.000 C 167.821 72.000,168.452 71.839,168.574 71.642 C 168.695 71.445,169.471 71.190,170.297 71.075 C 171.124 70.960,172.610 70.667,173.600 70.425 C 177.356 69.506,181.531 68.774,185.162 68.398 C 187.232 68.184,189.026 67.907,189.151 67.783 C 189.504 67.429,212.245 67.895,215.600 68.324 " stroke="none" fill="#fbe3bb" fill-rule="evenodd"></path><path id="path2" d="M0.000 200.000 L 0.000 400.000 200.000 400.000 L 400.000 400.000 400.000 200.000 L 400.000 0.000 200.000 0.000 L 0.000 0.000 0.000 200.000 M396.400 200.000 L 396.400 396.400 200.000 396.400 L 3.600 396.400 3.600 200.000 L 3.600 3.600 200.000 3.600 L 396.400 3.600 396.400 200.000 M188.200 67.998 C 187.540 68.165,188.800 68.208,191.000 68.095 C 193.200 67.981,195.075 67.824,195.167 67.744 C 195.480 67.473,189.402 67.694,188.200 67.998 M204.833 67.746 C 204.925 67.827,206.890 67.982,209.200 68.090 C 211.510 68.198,212.950 68.150,212.400 67.983 C 211.407 67.682,204.514 67.466,204.833 67.746 M181.600 68.800 C 181.050 68.976,179.970 69.163,179.200 69.215 C 178.400 69.269,178.143 69.377,178.600 69.468 C 179.040 69.556,180.840 69.368,182.600 69.050 C 184.833 68.646,185.316 68.473,184.200 68.476 C 183.320 68.478,182.150 68.624,181.600 68.800 M215.233 68.544 C 215.325 68.623,216.390 68.789,217.600 68.912 C 218.969 69.051,219.498 69.008,219.000 68.796 C 218.233 68.470,214.889 68.247,215.233 68.544 M220.705 69.483 C 221.202 69.579,221.922 69.575,222.305 69.475 C 222.687 69.375,222.280 69.296,221.400 69.301 C 220.520 69.305,220.207 69.387,220.705 69.483 M175.400 70.000 C 174.896 70.217,174.822 70.344,175.200 70.344 C 175.530 70.344,176.160 70.189,176.600 70.000 C 177.104 69.783,177.178 69.656,176.800 69.656 C 176.470 69.656,175.840 69.811,175.400 70.000 M172.000 70.800 C 171.467 71.145,171.467 71.188,172.000 71.188 C 172.330 71.188,172.870 71.013,173.200 70.800 C 173.733 70.455,173.733 70.412,173.200 70.412 C 172.870 70.412,172.330 70.587,172.000 70.800 M227.600 70.800 C 227.930 71.013,228.470 71.188,228.800 71.188 C 229.333 71.188,229.333 71.145,228.800 70.800 C 228.470 70.587,227.930 70.412,227.600 70.412 C 227.067 70.412,227.067 70.455,227.600 70.800 M168.600 71.600 C 168.308 72.073,168.699 72.073,169.800 71.600 C 170.571 71.269,170.569 71.255,169.724 71.228 C 169.242 71.213,168.736 71.380,168.600 71.600 M230.433 71.344 C 230.525 71.423,231.140 71.608,231.800 71.756 C 232.676 71.952,232.838 71.915,232.400 71.618 C 231.860 71.253,230.032 70.998,230.433 71.344 M239.800 74.178 C 240.680 74.513,241.850 74.770,242.400 74.748 C 243.203 74.716,243.124 74.643,242.000 74.376 C 238.750 73.604,238.156 73.551,239.800 74.178 M159.000 74.400 C 157.893 74.682,157.877 74.709,158.800 74.747 C 159.350 74.769,160.070 74.613,160.400 74.400 C 161.081 73.960,160.729 73.960,159.000 74.400 M155.200 75.200 C 154.405 75.714,155.404 75.714,156.600 75.200 L 157.400 74.856 156.600 74.834 C 156.160 74.822,155.530 74.987,155.200 75.200 M253.127 78.608 C 253.857 78.925,254.965 79.548,255.589 79.992 C 256.213 80.436,256.876 80.795,257.062 80.790 C 257.248 80.784,256.418 80.154,255.219 79.390 C 254.019 78.625,252.759 78.007,252.419 78.016 C 252.078 78.024,252.397 78.291,253.127 78.608 M138.200 83.200 C 137.540 83.608,136.696 83.955,136.324 83.971 C 135.952 83.987,135.537 84.178,135.403 84.395 C 135.260 84.627,135.457 84.695,135.879 84.558 C 136.877 84.236,140.000 82.705,140.000 82.537 C 140.000 82.249,139.355 82.486,138.200 83.200 M263.011 83.729 C 263.445 84.020,264.430 84.502,265.200 84.801 C 265.970 85.100,267.500 85.908,268.600 86.595 C 271.518 88.419,271.600 88.465,271.600 88.259 C 271.600 87.940,266.678 84.980,265.200 84.411 C 264.430 84.114,263.629 83.721,263.420 83.536 C 263.211 83.351,262.856 83.200,262.631 83.200 C 262.406 83.200,262.577 83.438,263.011 83.729 M128.400 88.609 C 125.342 90.683,124.792 91.131,123.996 92.200 C 123.668 92.640,124.128 92.359,125.018 91.575 C 125.908 90.791,127.753 89.461,129.118 88.618 C 130.483 87.776,131.600 87.022,131.600 86.943 C 131.600 86.567,130.791 86.988,128.400 88.609 M121.611 93.820 C 120.847 94.359,120.397 94.799,120.611 94.798 C 120.825 94.797,121.540 94.353,122.200 93.812 C 123.741 92.549,123.405 92.553,121.611 93.820 M278.600 93.765 C 279.260 94.332,279.965 94.797,280.167 94.798 C 280.601 94.800,280.596 94.796,278.800 93.637 L 277.400 92.734 278.600 93.765 M114.197 99.500 C 113.121 100.765,112.656 101.440,113.164 101.000 C 114.129 100.164,116.583 97.200,116.310 97.200 C 116.223 97.200,115.272 98.235,114.197 99.500 M284.400 97.452 C 284.400 97.664,285.165 98.549,286.100 99.419 L 287.800 101.000 286.200 99.206 C 285.320 98.220,284.555 97.335,284.500 97.239 C 284.445 97.144,284.400 97.240,284.400 97.452 M288.822 101.900 C 288.834 102.065,289.419 102.638,290.122 103.174 L 291.400 104.149 290.225 102.874 C 289.003 101.549,288.785 101.397,288.822 101.900 M109.600 103.660 C 108.830 104.335,108.562 104.705,109.004 104.481 C 109.735 104.111,111.547 102.378,111.162 102.416 C 111.073 102.425,110.370 102.985,109.600 103.660 M105.200 107.169 C 105.200 107.373,104.539 108.408,103.731 109.469 C 102.923 110.531,102.578 111.140,102.965 110.823 C 104.017 109.959,106.101 106.800,105.619 106.800 C 105.389 106.800,105.200 106.966,105.200 107.169 M297.228 110.186 C 298.741 111.973,301.873 115.167,300.972 114.004 C 300.547 113.455,299.300 112.099,298.200 110.990 C 297.100 109.880,296.662 109.519,297.228 110.186 M99.200 114.470 C 97.668 115.888,97.486 116.139,98.600 115.297 C 100.084 114.176,101.934 112.378,101.562 112.417 C 101.473 112.427,100.410 113.351,99.200 114.470 M302.834 115.847 C 303.365 116.533,303.880 117.023,303.979 116.935 C 304.077 116.847,303.643 116.286,303.013 115.688 L 301.869 114.600 302.834 115.847 M305.203 119.314 C 305.201 119.487,305.490 120.070,305.844 120.611 C 306.198 121.152,306.380 121.875,306.249 122.218 C 306.111 122.576,306.177 122.738,306.405 122.597 C 306.999 122.230,306.881 121.531,306.000 120.200 C 305.563 119.540,305.204 119.141,305.203 119.314 M93.692 121.829 C 93.197 122.583,92.872 123.200,92.969 123.200 C 93.247 123.200,94.904 120.771,94.739 120.606 C 94.657 120.524,94.186 121.074,93.692 121.829 M304.771 123.834 C 304.482 124.183,303.479 124.829,302.543 125.269 C 301.607 125.709,300.607 126.361,300.320 126.719 C 299.971 127.155,300.195 127.095,301.000 126.537 C 301.660 126.079,302.577 125.588,303.037 125.446 C 303.805 125.207,306.024 123.200,305.519 123.200 C 305.397 123.200,305.061 123.485,304.771 123.834 M91.598 124.500 C 90.481 125.504,86.648 131.181,86.911 131.444 C 87.003 131.537,87.770 130.493,88.615 129.124 C 89.459 127.756,90.767 125.953,91.522 125.118 C 93.064 123.411,93.095 123.156,91.598 124.500 M296.598 129.509 C 295.597 130.372,293.800 132.400,294.036 132.400 C 294.133 132.400,294.997 131.590,295.956 130.600 C 297.744 128.755,298.023 128.281,296.598 129.509 M288.300 135.647 C 287.475 136.064,286.800 136.491,286.800 136.595 C 286.800 136.833,288.749 136.001,289.789 135.318 C 290.933 134.567,290.046 134.762,288.300 135.647 M84.154 135.900 C 84.033 136.285,83.584 137.300,83.157 138.157 C 82.730 139.013,82.446 139.779,82.526 139.859 C 82.606 139.939,83.044 139.239,83.499 138.302 C 84.472 136.299,84.853 135.200,84.575 135.200 C 84.465 135.200,84.276 135.515,84.154 135.900 M283.600 139.569 C 282.364 140.783,282.176 141.079,283.000 140.512 C 284.296 139.620,285.831 138.056,285.564 137.898 C 285.474 137.844,284.590 138.596,283.600 139.569 M277.657 144.008 C 275.293 145.561,275.075 145.862,277.027 144.878 C 277.921 144.427,278.889 143.775,279.176 143.429 C 279.866 142.598,279.715 142.655,277.657 144.008 M270.400 149.432 C 268.192 151.179,267.370 152.032,269.000 150.885 C 270.602 149.758,272.650 148.031,272.400 148.018 C 272.290 148.012,271.390 148.649,270.400 149.432 M265.254 153.524 C 264.796 154.168,263.870 154.922,263.198 155.201 C 262.525 155.480,262.053 155.787,262.150 155.883 C 262.247 155.980,262.837 155.793,263.463 155.468 C 264.676 154.837,266.583 152.850,266.273 152.540 C 266.171 152.438,265.712 152.881,265.254 153.524 M75.073 155.353 C 74.923 155.745,74.811 156.366,74.825 156.733 C 74.842 157.175,74.981 157.074,75.237 156.434 C 75.449 155.903,75.561 155.282,75.485 155.054 C 75.409 154.827,75.224 154.961,75.073 155.353 M194.800 156.400 C 193.396 156.850,194.863 156.865,197.000 156.423 L 198.600 156.092 197.200 156.086 C 196.430 156.083,195.350 156.224,194.800 156.400 M204.800 156.400 C 205.350 156.576,206.430 156.717,207.200 156.713 L 208.600 156.705 207.400 156.400 C 205.639 155.952,203.401 155.952,204.800 156.400 M210.400 157.182 C 210.730 157.405,211.345 157.591,211.767 157.594 C 212.790 157.602,212.471 157.373,211.000 157.044 C 210.124 156.848,209.962 156.885,210.400 157.182 M257.578 158.940 C 256.160 160.117,254.640 161.512,254.200 162.040 C 253.760 162.567,254.307 162.189,255.416 161.200 C 256.525 160.210,258.145 158.824,259.016 158.121 C 259.887 157.418,260.500 156.833,260.378 156.821 C 260.256 156.809,258.996 157.763,257.578 158.940 M74.454 158.667 C 74.425 159.144,74.296 159.864,74.170 160.267 C 73.952 160.961,73.964 160.962,74.396 160.288 C 74.647 159.897,74.775 159.177,74.681 158.688 C 74.509 157.801,74.509 157.801,74.454 158.667 M183.600 159.813 C 182.170 160.561,181.154 161.178,181.342 161.186 C 181.783 161.204,185.682 159.258,186.180 158.772 C 186.762 158.203,186.413 158.344,183.600 159.813 M217.152 159.409 C 218.335 159.970,219.378 160.356,219.468 160.265 C 219.559 160.174,218.861 159.788,217.917 159.406 C 215.180 158.300,214.817 158.301,217.152 159.409 M220.209 160.713 C 220.847 161.259,222.870 162.037,222.626 161.642 C 222.503 161.442,221.820 161.076,221.110 160.829 C 220.399 160.581,219.994 160.529,220.209 160.713 M224.567 163.355 C 225.428 164.150,226.323 164.800,226.556 164.800 C 226.788 164.800,226.533 164.495,225.989 164.123 C 225.445 163.751,224.910 163.346,224.800 163.223 C 224.690 163.100,224.240 162.755,223.800 162.455 C 223.360 162.156,223.705 162.561,224.567 163.355 M175.211 164.620 C 174.447 165.159,173.997 165.599,174.211 165.598 C 174.425 165.597,175.140 165.153,175.800 164.612 C 177.341 163.349,177.005 163.353,175.211 164.620 M249.600 165.000 C 249.050 165.314,248.780 165.572,249.000 165.572 C 249.220 165.572,249.850 165.314,250.400 165.000 C 250.950 164.686,251.220 164.428,251.000 164.428 C 250.780 164.428,250.150 164.686,249.600 165.000 M227.410 165.216 C 227.540 165.427,227.834 165.600,228.062 165.600 C 228.290 165.600,229.044 165.994,229.738 166.476 C 230.987 167.342,230.992 167.342,230.261 166.501 C 229.512 165.639,226.961 164.489,227.410 165.216 M245.404 167.996 C 244.774 168.654,244.335 169.242,244.429 169.303 C 244.523 169.364,245.170 168.826,245.866 168.107 C 246.562 167.388,247.001 166.800,246.841 166.800 C 246.681 166.800,246.034 167.338,245.404 167.996 M169.178 169.500 L 167.800 171.000 169.300 169.622 C 170.125 168.863,170.800 168.188,170.800 168.122 C 170.800 167.816,170.462 168.104,169.178 169.500 M71.467 168.667 C 71.320 168.813,71.211 169.308,71.225 169.767 C 71.249 170.533,71.282 170.523,71.634 169.642 C 72.026 168.663,71.944 168.189,71.467 168.667 M233.663 170.345 C 234.178 170.976,234.832 171.832,235.115 172.246 C 235.398 172.661,235.234 172.243,234.752 171.319 C 234.269 170.394,233.615 169.538,233.300 169.417 C 232.972 169.291,233.127 169.688,233.663 170.345 M242.600 170.635 L 241.400 171.666 242.700 170.806 C 243.415 170.333,244.000 169.868,244.000 169.773 C 244.000 169.473,243.831 169.578,242.600 170.635 M70.600 172.400 C 70.450 172.873,70.417 173.350,70.527 173.460 C 70.637 173.570,70.850 173.273,71.000 172.800 C 71.150 172.327,71.183 171.850,71.073 171.740 C 70.963 171.630,70.750 171.927,70.600 172.400 M236.162 173.900 C 237.094 175.001,237.266 175.008,238.456 173.999 L 239.400 173.199 238.216 173.785 C 237.151 174.313,236.950 174.303,236.216 173.686 C 235.403 173.003,235.403 173.004,236.162 173.900 M164.492 175.429 C 163.997 176.183,163.672 176.800,163.769 176.800 C 164.047 176.800,165.704 174.371,165.539 174.206 C 165.457 174.124,164.986 174.674,164.492 175.429 M69.829 175.829 C 69.681 176.415,69.638 176.972,69.732 177.066 C 69.827 177.160,70.024 176.758,70.171 176.171 C 70.319 175.585,70.362 175.028,70.268 174.934 C 70.173 174.840,69.976 175.242,69.829 175.829 M69.071 179.800 C 68.439 183.987,68.405 185.831,69.020 182.600 C 69.354 180.840,69.571 179.040,69.501 178.600 C 69.430 178.160,69.237 178.700,69.071 179.800 M159.663 183.924 C 158.938 185.396,158.525 186.420,158.744 186.200 C 159.286 185.657,161.309 181.576,161.127 181.393 C 161.046 181.313,160.388 182.452,159.663 183.924 M67.859 188.688 C 67.721 189.519,67.632 191.370,67.660 192.800 C 67.706 195.111,67.748 194.958,68.040 191.417 C 68.379 187.300,68.295 186.046,67.859 188.688 M156.282 195.150 C 156.127 195.893,156.020 196.972,156.044 197.550 C 156.073 198.242,156.210 197.987,156.447 196.800 C 156.645 195.810,156.752 194.730,156.685 194.400 C 156.619 194.070,156.438 194.408,156.282 195.150 M156.272 206.200 C 156.399 207.300,156.569 208.275,156.651 208.367 C 156.932 208.682,156.720 206.199,156.380 205.200 C 156.151 204.526,156.116 204.851,156.272 206.200 M67.647 208.433 C 67.673 210.285,67.833 212.340,68.001 213.000 C 68.170 213.660,68.213 212.220,68.098 209.800 C 67.847 204.532,67.581 203.725,67.647 208.433 M156.828 210.676 C 156.918 211.715,157.544 212.596,157.572 211.724 C 157.587 211.242,157.420 210.736,157.200 210.600 C 156.980 210.464,156.813 210.498,156.828 210.676 M68.440 216.633 C 68.462 217.495,68.627 218.650,68.807 219.200 C 69.011 219.821,69.051 219.291,68.912 217.800 C 68.654 215.021,68.382 214.349,68.440 216.633 M159.230 217.200 C 159.228 217.776,160.357 220.066,160.386 219.546 C 160.394 219.406,160.137 218.686,159.816 217.946 C 159.494 217.206,159.231 216.870,159.230 217.200 M160.860 221.201 C 161.090 221.861,161.441 222.502,161.639 222.624 C 162.139 222.933,162.096 222.715,161.371 221.261 C 160.575 219.666,160.314 219.635,160.860 221.201 M69.293 221.600 C 69.293 222.370,69.375 222.685,69.476 222.300 C 69.576 221.915,69.576 221.285,69.476 220.900 C 69.375 220.515,69.293 220.830,69.293 221.600 M162.455 223.800 C 162.755 224.240,163.100 224.690,163.223 224.800 C 163.346 224.910,163.751 225.445,164.123 225.989 C 164.495 226.533,164.800 226.788,164.800 226.556 C 164.800 226.323,164.150 225.428,163.355 224.567 C 162.561 223.705,162.156 223.360,162.455 223.800 M69.656 224.000 C 69.656 224.330,69.811 224.960,70.000 225.400 C 70.217 225.904,70.344 225.978,70.344 225.600 C 70.344 225.270,70.189 224.640,70.000 224.200 C 69.783 223.696,69.656 223.622,69.656 224.000 M165.242 228.347 C 165.467 228.994,166.034 229.855,166.501 230.261 C 167.342 230.992,167.342 230.987,166.476 229.738 C 165.994 229.044,165.600 228.290,165.600 228.062 C 165.600 227.834,165.427 227.540,165.216 227.410 C 164.983 227.266,164.993 227.634,165.242 228.347 M235.923 229.100 C 235.218 229.921,234.690 230.800,234.901 230.800 C 234.983 230.800,235.449 230.260,235.937 229.600 C 236.901 228.296,236.892 227.972,235.923 229.100 M237.233 228.530 C 237.325 228.601,238.030 229.066,238.800 229.563 L 240.200 230.466 239.000 229.435 C 238.340 228.868,237.635 228.403,237.433 228.402 C 237.232 228.401,237.142 228.458,237.233 228.530 M71.234 231.000 C 71.222 231.440,71.387 232.070,71.600 232.400 C 72.114 233.195,72.114 232.196,71.600 231.000 L 71.256 230.200 71.234 231.000 M232.947 233.099 C 232.038 234.035,231.416 234.800,231.566 234.800 C 231.926 234.800,234.998 231.646,234.774 231.506 C 234.678 231.447,233.856 232.164,232.947 233.099 M242.400 232.106 C 242.400 232.194,243.165 232.874,244.100 233.617 C 245.035 234.360,245.546 234.652,245.236 234.265 C 244.651 233.537,242.400 231.823,242.400 232.106 M170.000 234.021 C 171.042 234.730,172.800 235.628,172.800 235.450 C 172.800 235.228,170.039 233.598,169.677 233.606 C 169.525 233.609,169.670 233.796,170.000 234.021 M229.093 235.814 C 228.272 236.372,227.600 236.915,227.600 237.020 C 227.600 237.125,228.320 236.735,229.200 236.153 C 230.597 235.228,231.070 234.800,230.693 234.800 C 230.634 234.800,229.914 235.256,229.093 235.814 M246.010 234.926 C 246.609 235.574,249.295 237.197,248.818 236.622 C 248.510 236.251,247.705 235.666,247.029 235.323 C 246.353 234.979,245.895 234.801,246.010 234.926 M175.319 237.751 C 176.594 238.988,177.854 239.999,178.119 239.997 C 178.383 239.996,178.079 239.651,177.442 239.231 C 176.805 238.811,175.905 238.047,175.442 237.533 C 174.979 237.019,174.240 236.352,173.800 236.050 C 173.360 235.748,174.043 236.513,175.319 237.751 M249.600 237.302 C 249.600 237.413,250.635 238.279,251.900 239.227 C 253.165 240.176,254.740 241.540,255.400 242.260 C 256.497 243.456,261.490 246.392,260.955 245.527 C 260.828 245.322,259.745 244.690,258.547 244.123 C 257.350 243.556,256.198 242.770,255.987 242.376 C 255.777 241.983,254.478 240.813,253.102 239.776 C 251.726 238.740,250.375 237.714,250.100 237.497 C 249.825 237.280,249.600 237.192,249.600 237.302 M224.400 239.400 C 223.478 240.170,222.876 240.793,223.062 240.783 C 223.442 240.765,226.662 238.000,226.304 238.000 C 226.179 238.000,225.322 238.630,224.400 239.400 M73.805 239.400 C 74.426 242.528,74.707 243.424,74.748 242.400 C 74.770 241.850,74.513 240.680,74.178 239.800 C 73.722 238.604,73.628 238.503,73.805 239.400 M216.280 243.453 C 216.140 243.593,214.895 243.943,213.513 244.231 L 211.000 244.755 213.164 244.531 C 215.234 244.317,218.485 243.248,217.167 243.216 C 216.818 243.207,216.419 243.314,216.280 243.453 M188.200 244.393 C 189.300 244.587,191.280 244.839,192.600 244.953 C 194.994 245.159,194.995 245.159,193.000 244.807 C 191.900 244.613,189.920 244.361,188.600 244.247 C 186.206 244.041,186.205 244.041,188.200 244.393 M208.300 245.082 C 208.795 245.178,209.605 245.178,210.100 245.082 C 210.595 244.987,210.190 244.909,209.200 244.909 C 208.210 244.909,207.805 244.987,208.300 245.082 M196.000 245.589 C 196.978 245.913,201.096 246.142,200.767 245.855 C 200.675 245.775,199.340 245.608,197.800 245.484 C 196.096 245.347,195.391 245.388,196.000 245.589 M203.000 245.600 L 201.400 245.886 203.000 245.896 C 203.880 245.901,205.140 245.768,205.800 245.600 L 207.000 245.295 205.800 245.304 C 205.140 245.309,203.880 245.442,203.000 245.600 M264.609 248.924 C 265.904 250.159,267.031 251.102,267.113 251.021 C 267.286 250.847,263.801 247.567,262.882 247.039 C 262.536 246.841,263.313 247.689,264.609 248.924 M269.000 252.560 C 269.880 253.345,271.521 254.426,272.647 254.963 C 273.773 255.500,275.033 256.361,275.447 256.877 C 276.340 257.988,281.201 261.725,281.197 261.297 C 281.196 261.133,280.521 260.550,279.697 260.001 C 278.874 259.451,277.287 258.151,276.171 257.110 C 275.055 256.070,273.498 254.950,272.711 254.621 C 271.924 254.292,271.037 253.787,270.740 253.498 C 270.443 253.210,269.570 252.560,268.800 252.054 C 267.435 251.157,267.441 251.170,269.000 252.560 M78.005 252.519 C 77.999 252.926,81.215 258.800,81.444 258.800 C 81.640 258.800,80.564 256.649,79.043 254.000 C 78.475 253.010,78.007 252.343,78.005 252.519 M84.028 264.200 C 84.028 264.420,84.286 265.050,84.600 265.600 C 84.914 266.150,85.172 266.420,85.172 266.200 C 85.172 265.980,84.914 265.350,84.600 264.800 C 84.286 264.250,84.028 263.980,84.028 264.200 M289.800 267.765 C 290.460 268.332,291.165 268.797,291.367 268.798 C 291.801 268.800,291.796 268.796,290.000 267.637 L 288.600 266.734 289.800 267.765 M291.633 269.330 C 291.725 269.401,292.430 269.866,293.200 270.363 L 294.600 271.266 293.400 270.235 C 292.740 269.668,292.035 269.203,291.833 269.202 C 291.632 269.201,291.542 269.258,291.633 269.330 M295.887 272.809 C 296.595 273.551,297.242 274.078,297.325 273.979 C 297.408 273.881,296.829 273.273,296.038 272.629 L 294.600 271.458 295.887 272.809 M300.969 275.949 C 301.359 276.582,303.601 278.099,303.595 277.727 C 303.592 277.547,302.943 276.981,302.152 276.468 C 301.360 275.955,300.828 275.722,300.969 275.949 M93.637 278.800 C 94.796 280.596,94.800 280.601,94.798 280.167 C 94.797 279.965,94.332 279.260,93.765 278.600 L 92.734 277.400 93.637 278.800 M304.854 282.202 C 304.579 282.962,303.554 284.239,302.577 285.040 C 301.600 285.841,300.800 286.632,300.800 286.798 C 300.800 286.964,301.684 286.298,302.765 285.317 C 304.541 283.706,305.985 281.451,305.531 280.997 C 305.433 280.900,305.129 281.442,304.854 282.202 M99.200 286.200 C 99.946 286.970,100.647 287.600,100.757 287.600 C 100.867 287.600,100.346 286.970,99.600 286.200 C 98.854 285.430,98.153 284.800,98.043 284.800 C 97.933 284.800,98.454 285.430,99.200 286.200 M298.600 289.122 C 297.720 290.098,296.410 291.723,295.688 292.735 C 294.967 293.746,293.797 294.933,293.088 295.372 C 292.380 295.810,291.710 296.266,291.600 296.385 C 291.490 296.503,290.463 297.455,289.317 298.500 C 288.172 299.545,287.362 300.394,287.517 300.387 C 287.673 300.379,288.700 299.550,289.800 298.543 C 290.900 297.536,292.461 296.268,293.268 295.724 C 294.075 295.181,295.175 294.075,295.712 293.268 C 296.248 292.461,297.546 290.848,298.595 289.684 C 299.644 288.521,300.434 287.519,300.351 287.459 C 300.268 287.399,299.480 288.147,298.600 289.122 M101.600 288.925 C 101.600 288.994,102.185 289.579,102.900 290.225 L 104.200 291.400 103.025 290.100 C 101.930 288.888,101.600 288.616,101.600 288.925 M110.486 297.801 C 111.523 298.879,112.433 299.680,112.507 299.581 C 112.581 299.481,111.733 298.599,110.621 297.620 L 108.600 295.840 110.486 297.801 M285.154 302.458 C 284.432 303.369,283.075 304.454,282.137 304.869 C 281.200 305.284,280.335 305.782,280.215 305.976 C 280.095 306.171,280.852 305.914,281.898 305.406 C 283.575 304.593,287.593 300.800,286.779 300.800 C 286.608 300.800,285.876 301.546,285.154 302.458 M115.175 302.600 C 115.693 303.427,117.575 304.985,117.758 304.739 C 117.815 304.663,117.144 303.970,116.267 303.200 C 115.391 302.430,114.899 302.160,115.175 302.600 M118.623 305.237 C 118.746 305.437,119.034 305.600,119.262 305.600 C 119.490 305.600,120.244 305.975,120.938 306.433 L 122.200 307.266 121.028 306.261 C 119.859 305.257,118.199 304.551,118.623 305.237 M123.994 308.904 C 124.981 309.947,125.902 310.800,126.041 310.800 C 126.353 310.800,124.085 308.421,122.995 307.604 C 122.558 307.277,123.007 307.862,123.994 308.904 M275.744 309.428 C 274.401 310.731,274.178 311.024,275.222 310.114 C 276.225 309.241,277.393 308.332,277.819 308.093 C 278.245 307.855,278.479 307.546,278.340 307.407 C 278.201 307.268,277.032 308.177,275.744 309.428 M131.600 314.220 C 131.600 314.325,132.635 314.902,133.900 315.502 C 136.881 316.917,137.180 317.016,136.131 316.241 C 135.142 315.509,131.600 313.930,131.600 314.220 M266.200 315.414 C 265.540 315.717,265.270 315.966,265.600 315.968 C 265.930 315.970,266.650 315.714,267.200 315.400 C 268.465 314.677,267.789 314.687,266.200 315.414 M257.627 319.830 C 254.901 321.267,253.911 322.000,254.696 322.000 C 254.947 322.000,255.270 321.810,255.413 321.579 C 255.557 321.347,256.827 320.629,258.237 319.983 C 259.647 319.337,260.800 318.717,260.800 318.605 C 260.800 318.237,260.238 318.454,257.627 319.830 M142.224 319.787 C 142.651 320.110,143.180 320.384,143.400 320.396 C 143.620 320.408,144.250 320.770,144.800 321.200 C 145.350 321.630,145.975 321.986,146.189 321.991 C 146.657 322.002,145.549 321.205,143.488 320.048 C 141.740 319.068,141.096 318.935,142.224 319.787 M154.000 325.021 C 154.990 325.333,156.160 325.578,156.600 325.567 C 157.040 325.555,156.500 325.296,155.400 324.991 C 152.785 324.265,151.676 324.288,154.000 325.021 M244.600 325.200 C 243.511 325.477,243.493 325.507,244.400 325.525 C 244.950 325.535,245.760 325.389,246.200 325.200 C 247.186 324.776,246.266 324.776,244.600 325.200 M167.233 328.944 C 167.325 329.023,167.940 329.208,168.600 329.356 C 169.476 329.552,169.638 329.515,169.200 329.218 C 168.660 328.853,166.832 328.598,167.233 328.944 M231.800 329.200 C 231.296 329.417,231.222 329.544,231.600 329.544 C 231.930 329.544,232.560 329.389,233.000 329.200 C 233.504 328.983,233.578 328.856,233.200 328.856 C 232.870 328.856,232.240 329.011,231.800 329.200 M226.800 330.254 C 224.814 330.861,226.181 330.750,229.400 330.043 C 230.761 329.744,230.821 329.693,229.800 329.698 C 229.140 329.702,227.790 329.952,226.800 330.254 M176.400 331.179 C 176.730 331.404,177.525 331.591,178.167 331.594 C 179.704 331.602,179.384 331.370,177.400 331.038 C 176.254 330.846,175.970 330.886,176.400 331.179 M222.800 331.200 L 221.400 331.495 222.876 331.547 C 223.688 331.576,224.464 331.420,224.600 331.200 C 224.868 330.766,224.861 330.766,222.800 331.200 M181.200 332.000 C 181.530 332.213,182.430 332.369,183.200 332.347 L 184.600 332.305 183.400 332.000 C 181.524 331.523,180.461 331.523,181.200 332.000 M217.400 332.000 L 216.200 332.305 217.400 332.347 C 218.060 332.369,218.870 332.213,219.200 332.000 C 219.943 331.520,219.287 331.520,217.400 332.000 M187.200 332.783 C 188.174 333.111,192.699 333.347,192.367 333.052 C 192.275 332.971,190.850 332.801,189.200 332.675 C 187.354 332.534,186.585 332.575,187.200 332.783 M210.400 332.800 L 208.600 333.080 210.400 333.100 C 211.390 333.111,212.650 332.976,213.200 332.800 L 214.200 332.480 213.200 332.500 C 212.650 332.511,211.390 332.646,210.400 332.800 " stroke="none" fill="#dcc494" fill-rule="evenodd"></path><path id="path3" d="M192.305 68.283 C 192.802 68.379,193.522 68.375,193.905 68.275 C 194.287 68.175,193.880 68.096,193.000 68.101 C 192.120 68.105,191.807 68.187,192.305 68.283 M206.307 68.290 C 207.026 68.379,208.106 68.377,208.707 68.286 C 209.308 68.195,208.720 68.122,207.400 68.124 C 206.080 68.126,205.588 68.201,206.307 68.290 M188.300 68.682 C 188.795 68.778,189.605 68.778,190.100 68.682 C 190.595 68.587,190.190 68.509,189.200 68.509 C 188.210 68.509,187.805 68.587,188.300 68.682 M210.705 68.683 C 211.202 68.779,211.922 68.775,212.305 68.675 C 212.687 68.575,212.280 68.496,211.400 68.501 C 210.520 68.505,210.207 68.587,210.705 68.683 M183.000 69.200 C 181.911 69.477,181.893 69.507,182.800 69.525 C 183.350 69.535,184.160 69.389,184.600 69.200 C 185.586 68.776,184.666 68.776,183.000 69.200 M216.400 69.200 C 216.950 69.376,217.760 69.520,218.200 69.520 C 218.833 69.520,218.792 69.454,218.000 69.200 C 217.450 69.024,216.640 68.880,216.200 68.880 C 215.567 68.880,215.608 68.946,216.400 69.200 M168.800 72.000 C 167.976 72.264,167.941 72.326,168.600 72.354 C 169.040 72.373,169.670 72.213,170.000 72.000 C 170.701 71.547,170.214 71.547,168.800 72.000 M154.000 76.200 C 152.694 76.947,153.151 76.955,154.854 76.216 C 155.594 75.894,155.930 75.631,155.600 75.630 C 155.270 75.629,154.550 75.886,154.000 76.200 M144.600 80.400 C 143.940 80.837,143.580 81.192,143.800 81.188 C 144.201 81.182,146.376 79.623,146.000 79.612 C 145.890 79.608,145.260 79.963,144.600 80.400 M276.800 92.946 C 276.800 93.056,277.340 93.530,278.000 94.000 C 278.660 94.470,279.200 94.764,279.200 94.654 C 279.200 94.544,278.660 94.070,278.000 93.600 C 277.340 93.130,276.800 92.836,276.800 92.946 M283.599 97.401 C 284.368 98.280,285.155 99.180,285.348 99.400 C 285.540 99.620,285.511 99.440,285.283 99.000 C 285.055 98.560,284.268 97.660,283.534 97.001 L 282.200 95.802 283.599 97.401 M286.038 100.100 C 286.132 100.155,286.927 100.830,287.804 101.600 L 289.400 103.000 288.022 101.500 C 287.263 100.675,286.468 100.000,286.255 100.000 C 286.041 100.000,285.944 100.045,286.038 100.100 M111.178 103.100 L 109.800 104.600 111.300 103.222 C 112.125 102.463,112.800 101.788,112.800 101.722 C 112.800 101.416,112.462 101.704,111.178 103.100 M106.378 106.700 L 105.000 108.200 106.500 106.822 C 107.325 106.063,108.000 105.388,108.000 105.322 C 108.000 105.016,107.662 105.304,106.378 106.700 M102.778 111.500 L 101.400 113.000 102.900 111.622 C 104.296 110.338,104.584 110.000,104.278 110.000 C 104.212 110.000,103.537 110.675,102.778 111.500 M298.400 112.200 C 299.146 112.970,299.847 113.600,299.957 113.600 C 300.067 113.600,299.546 112.970,298.800 112.200 C 298.054 111.430,297.353 110.800,297.243 110.800 C 297.133 110.800,297.654 111.430,298.400 112.200 M80.253 144.900 L 79.533 146.200 80.358 145.200 C 81.089 144.313,81.414 143.600,81.086 143.600 C 81.024 143.600,80.649 144.185,80.253 144.900 M264.975 153.300 L 263.800 154.600 265.100 153.425 C 265.815 152.779,266.400 152.194,266.400 152.125 C 266.400 151.816,266.070 152.088,264.975 153.300 M76.065 154.217 C 75.809 154.778,75.607 155.454,75.616 155.719 C 75.624 155.983,75.897 155.588,76.222 154.839 C 76.905 153.265,76.761 152.690,76.065 154.217 M194.800 155.995 C 194.391 156.255,194.710 156.299,195.800 156.132 C 197.777 155.829,198.114 155.598,196.567 155.606 C 195.925 155.609,195.130 155.784,194.800 155.995 M204.900 155.876 C 205.285 155.976,205.915 155.976,206.300 155.876 C 206.685 155.775,206.370 155.693,205.600 155.693 C 204.830 155.693,204.515 155.775,204.900 155.876 M210.033 156.544 C 210.125 156.623,210.740 156.808,211.400 156.956 C 212.276 157.152,212.438 157.115,212.000 156.818 C 211.460 156.453,209.632 156.198,210.033 156.544 M223.233 161.700 C 223.325 161.755,223.940 162.250,224.600 162.800 L 225.800 163.800 224.830 162.700 C 224.297 162.095,223.682 161.600,223.464 161.600 C 223.245 161.600,223.142 161.645,223.233 161.700 M251.611 163.420 C 250.847 163.959,250.397 164.399,250.611 164.398 C 250.825 164.397,251.540 163.953,252.200 163.412 C 253.741 162.149,253.405 162.153,251.611 163.420 M168.987 169.300 L 166.600 171.800 169.100 169.413 C 171.422 167.195,171.783 166.800,171.487 166.800 C 171.426 166.800,170.301 167.925,168.987 169.300 M72.046 168.467 C 72.021 168.834,71.896 169.464,71.770 169.867 C 71.552 170.562,71.563 170.563,71.997 169.887 C 72.248 169.496,72.373 168.866,72.273 168.487 C 72.111 167.868,72.088 167.866,72.046 168.467 M235.400 172.000 C 235.741 172.660,236.111 173.200,236.221 173.200 C 236.331 173.200,236.141 172.660,235.800 172.000 C 235.459 171.340,235.089 170.800,234.979 170.800 C 234.869 170.800,235.059 171.340,235.400 172.000 M239.800 172.235 L 238.600 173.266 239.900 172.406 C 240.615 171.933,241.200 171.468,241.200 171.373 C 241.200 171.073,241.031 171.178,239.800 172.235 M69.249 182.600 C 69.216 183.040,69.096 183.850,68.983 184.400 L 68.777 185.400 69.206 184.419 C 69.442 183.879,69.561 183.069,69.472 182.619 C 69.313 181.821,69.307 181.821,69.249 182.600 M68.509 189.200 C 68.509 190.190,68.587 190.595,68.682 190.100 C 68.778 189.605,68.778 188.795,68.682 188.300 C 68.587 187.805,68.509 188.210,68.509 189.200 M68.101 193.000 C 68.105 193.880,68.187 194.193,68.283 193.695 C 68.379 193.198,68.375 192.478,68.275 192.095 C 68.175 191.713,68.096 192.120,68.101 193.000 M155.849 195.015 C 155.712 195.373,155.621 196.146,155.646 196.733 C 155.680 197.532,155.770 197.398,156.004 196.200 C 156.335 194.500,156.262 193.940,155.849 195.015 M68.109 207.600 C 68.109 208.590,68.187 208.995,68.282 208.500 C 68.378 208.005,68.378 207.195,68.282 206.700 C 68.187 206.205,68.109 206.610,68.109 207.600 M68.509 211.600 C 68.509 212.590,68.587 212.995,68.682 212.500 C 68.778 212.005,68.778 211.195,68.682 210.700 C 68.587 210.205,68.509 210.610,68.509 211.600 M69.668 221.800 C 69.662 222.240,69.811 222.960,70.000 223.400 C 70.438 224.419,70.438 223.368,70.000 222.000 C 69.743 221.196,69.677 221.157,69.668 221.800 M168.800 233.400 C 169.546 234.170,170.247 234.800,170.357 234.800 C 170.467 234.800,169.946 234.170,169.200 233.400 C 168.454 232.630,167.753 232.000,167.643 232.000 C 167.533 232.000,168.054 232.630,168.800 233.400 M243.798 233.937 C 244.234 234.452,244.953 235.059,245.396 235.286 C 246.245 235.721,246.121 235.587,244.203 233.994 C 243.048 233.035,243.034 233.033,243.798 233.937 M171.600 235.324 C 171.600 235.417,172.365 235.998,173.300 236.615 C 174.235 237.232,174.789 237.480,174.531 237.168 C 174.034 236.567,171.600 235.036,171.600 235.324 M227.800 237.435 L 226.600 238.466 227.900 237.606 C 228.615 237.133,229.200 236.668,229.200 236.573 C 229.200 236.273,229.031 236.378,227.800 237.435 M199.511 246.293 C 200.451 246.378,201.891 246.377,202.711 246.291 C 203.530 246.205,202.760 246.136,201.000 246.137 C 199.240 246.139,198.570 246.209,199.511 246.293 M278.800 260.146 C 278.800 260.256,279.340 260.730,280.000 261.200 C 280.660 261.670,281.200 261.964,281.200 261.854 C 281.200 261.744,280.660 261.270,280.000 260.800 C 279.340 260.330,278.800 260.036,278.800 260.146 M97.200 283.800 C 97.946 284.570,98.647 285.200,98.757 285.200 C 98.867 285.200,98.346 284.570,97.600 283.800 C 96.854 283.030,96.153 282.400,96.043 282.400 C 95.933 282.400,96.454 283.030,97.200 283.800 M300.175 286.900 L 299.000 288.200 300.300 287.025 C 301.015 286.379,301.600 285.794,301.600 285.725 C 301.600 285.416,301.270 285.688,300.175 286.900 M100.000 286.255 C 100.000 286.468,100.675 287.263,101.500 288.022 L 103.000 289.400 101.600 287.804 C 100.830 286.927,100.155 286.132,100.100 286.038 C 100.045 285.944,100.000 286.041,100.000 286.255 M124.800 309.000 C 125.546 309.770,126.247 310.400,126.357 310.400 C 126.467 310.400,125.946 309.770,125.200 309.000 C 124.454 308.230,123.753 307.600,123.643 307.600 C 123.533 307.600,124.054 308.230,124.800 309.000 M249.000 323.578 C 248.120 323.995,247.513 324.350,247.651 324.368 C 248.040 324.418,250.800 323.214,250.800 322.995 C 250.800 322.727,250.799 322.727,249.000 323.578 M222.600 330.800 C 222.096 331.017,222.022 331.144,222.400 331.144 C 222.730 331.144,223.360 330.989,223.800 330.800 C 224.304 330.583,224.378 330.456,224.000 330.456 C 223.670 330.456,223.040 330.611,222.600 330.800 M180.900 331.476 C 181.285 331.576,181.915 331.576,182.300 331.476 C 182.685 331.375,182.370 331.293,181.600 331.293 C 180.830 331.293,180.515 331.375,180.900 331.476 M186.905 332.287 C 187.514 332.379,188.414 332.377,188.905 332.282 C 189.397 332.187,188.900 332.111,187.800 332.114 C 186.700 332.117,186.297 332.195,186.905 332.287 M212.105 332.287 C 212.714 332.379,213.614 332.377,214.105 332.282 C 214.597 332.187,214.100 332.111,213.000 332.114 C 211.900 332.117,211.497 332.195,212.105 332.287 M190.900 332.676 C 191.285 332.776,191.915 332.776,192.300 332.676 C 192.685 332.575,192.370 332.493,191.600 332.493 C 190.830 332.493,190.515 332.575,190.900 332.676 M198.500 333.091 C 199.325 333.178,200.675 333.178,201.500 333.091 C 202.325 333.005,201.650 332.934,200.000 332.934 C 198.350 332.934,197.675 333.005,198.500 333.091 " stroke="none" fill="#b99c74" fill-rule="evenodd"></path><path id="path4" d="M197.500 67.896 C 198.875 67.974,201.125 67.974,202.500 67.896 C 203.875 67.818,202.750 67.754,200.000 67.754 C 197.250 67.754,196.125 67.818,197.500 67.896 M213.300 68.676 C 213.685 68.776,214.315 68.776,214.700 68.676 C 215.085 68.575,214.770 68.493,214.000 68.493 C 213.230 68.493,212.915 68.575,213.300 68.676 M306.032 121.569 C 306.014 121.881,305.692 122.511,305.315 122.969 C 304.669 123.753,304.683 123.751,305.562 122.942 C 306.075 122.470,306.397 121.840,306.279 121.542 C 306.104 121.103,306.057 121.108,306.032 121.569 M199.312 155.895 C 200.364 155.977,201.984 155.976,202.912 155.892 C 203.840 155.808,202.980 155.741,201.000 155.742 C 199.020 155.743,198.260 155.812,199.312 155.895 M232.000 168.200 C 232.746 168.970,233.447 169.600,233.557 169.600 C 233.667 169.600,233.146 168.970,232.400 168.200 C 231.654 167.430,230.953 166.800,230.843 166.800 C 230.733 166.800,231.254 167.430,232.000 168.200 M67.755 200.200 C 67.756 203.060,67.820 204.178,67.897 202.683 C 67.974 201.189,67.974 198.849,67.896 197.483 C 67.818 196.118,67.755 197.340,67.755 200.200 M155.744 201.200 C 155.744 203.290,155.812 204.145,155.894 203.100 C 155.976 202.055,155.976 200.345,155.894 199.300 C 155.812 198.255,155.744 199.110,155.744 201.200 M168.000 232.200 C 168.746 232.970,169.447 233.600,169.557 233.600 C 169.667 233.600,169.146 232.970,168.400 232.200 C 167.654 231.430,166.953 230.800,166.843 230.800 C 166.733 230.800,167.254 231.430,168.000 232.200 M263.200 247.725 C 263.200 247.794,263.785 248.379,264.500 249.025 L 265.800 250.200 264.625 248.900 C 263.530 247.688,263.200 247.416,263.200 247.725 M101.600 288.525 C 101.600 288.594,102.185 289.179,102.900 289.825 L 104.200 291.000 103.025 289.700 C 101.930 288.488,101.600 288.216,101.600 288.525 M110.000 296.925 C 110.000 296.994,110.585 297.579,111.300 298.225 L 112.600 299.400 111.425 298.100 C 110.330 296.888,110.000 296.616,110.000 296.925 M193.500 333.089 C 194.215 333.178,195.385 333.178,196.100 333.089 C 196.815 333.001,196.230 332.928,194.800 332.928 C 193.370 332.928,192.785 333.001,193.500 333.089 M204.311 333.093 C 205.251 333.178,206.691 333.177,207.511 333.091 C 208.330 333.005,207.560 332.936,205.800 332.937 C 204.040 332.939,203.370 333.009,204.311 333.093 " stroke="none" fill="#ccb085" fill-rule="evenodd"></path></g></svg>